<svg aria-hidden="true" style="position: absolute; width: 0; height: 0; overflow: hidden;" version="1.1" xmlns="http://www.w3.org/2000/svg" xmlns:xlink="http://www.w3.org/1999/xlink">
<defs>
<symbol id="icon-logo_partner5" viewBox="0 0 37 32">
<path fill="#000" style="fill: var(--color1, #000)" opacity="0.35" d="M27.686 6.252c5.097 5.097 5.097 13.361 0 18.458s-13.361 5.097-18.458 0c-5.097-5.097-5.097-13.361 0-18.458s13.361-5.097 18.458 0z"></path>
<path fill="#000" style="fill: var(--color1, #000)" opacity="0.35" d="M18.458 3.020c6.882 0 12.461 5.579 12.461 12.461s-5.579 12.461-12.461 12.461c-6.882 0-12.461-5.579-12.461-12.46v-0c0-0 0-0.001 0-0.001 0-6.882 5.579-12.461 12.461-12.461 0 0 0 0 0 0h-0zM18.458 1.839c-0 0-0 0-0 0-7.534 0-13.642 6.108-13.642 13.642s6.108 13.642 13.642 13.642c7.534 0 13.641-6.107 13.642-13.641v-0c-0.008-7.531-6.111-13.634-13.641-13.643h-0.001z"></path>
<path fill="#000" style="fill: var(--color1, #000)" opacity="0.35" d="M27.547 6.392c5.020 5.020 5.020 13.159 0 18.179s-13.159 5.020-18.179 0c-5.020-5.020-5.020-13.159 0-18.179s13.159-5.020 18.179 0z"></path>
<path fill="#fff" style="fill: var(--color2, #fff)" opacity="0.35" d="M18.458 3.020c6.882 0 12.461 5.579 12.461 12.461s-5.579 12.461-12.461 12.461c-6.882 0-12.461-5.579-12.461-12.461v0c0-6.882 5.579-12.461 12.461-12.461v0zM18.458 2.233c-7.317 0-13.248 5.931-13.248 13.248s5.931 13.248 13.248 13.248c7.317 0 13.248-5.931 13.248-13.248v0c-0.009-7.313-5.935-13.239-13.247-13.248h-0.001z"></path>
<path fill="#fff" style="fill: var(--color2, #fff)" opacity="0.35" d="M0.359 19.163v-0.721l1.996-2.96-1.996-2.96v-0.721h36.197v0.721l-1.996 2.96 1.996 2.96v0.721z"></path>
<path fill="#000" style="fill: var(--color1, #000)" opacity="0.35" d="M36.359 11.997v0.464l-2.037 3.020 2.037 3.020v0.464h-35.804v-0.464l2.037-3.020-2.037-3.020v-0.464h35.804zM36.753 11.604h-36.591v0.977l0.067 0.1 1.888 2.801-1.955 2.9v0.978h36.591v-0.978l-0.067-0.1-1.888-2.8 1.955-2.9v-0.977z"></path>
<path fill="#fff" style="fill: var(--color2, #fff)" opacity="0.35" d="M18.458 21.843c-0 0-0 0-0 0-3.514 0-6.362-2.848-6.362-6.362s2.848-6.362 6.362-6.362c3.514 0 6.362 2.848 6.362 6.362v0c-0.003 3.512-2.85 6.358-6.361 6.362h-0z"></path>
<path fill="#000" style="fill: var(--color1, #000)" opacity="0.35" d="M18.458 9.317c0 0 0.001 0 0.001 0 3.405 0 6.165 2.76 6.165 6.165s-2.76 6.165-6.165 6.165c-3.405 0-6.165-2.76-6.165-6.165 0-0 0-0.001 0-0.001v0c0.001-3.404 2.76-6.163 6.164-6.164h0zM18.458 8.924c-3.623 0-6.56 2.937-6.56 6.56s2.937 6.56 6.56 6.56c3.623 0 6.56-2.937 6.56-6.56v0c-0.003-3.622-2.938-6.557-6.56-6.56h-0z"></path>
</symbol>
<symbol id="icon-logo_partner6" viewBox="0 0 36 32">
<path fill="#fff" style="fill: var(--color2, #fff)" opacity="0.35" d="M3.437 26.734l0.786-2.837-2.361-1.785-0.187-0.548 31.313-14.058 0.197 0.579-0.786 2.837 2.361 1.785 0.187 0.548-31.313 14.058z"></path>
<path fill="#000" style="fill: var(--color1, #000)" opacity="0.35" d="M33.058 7.521l0.125 0.37-0.811 2.956 2.437 1.86 0.125 0.37-31.369 14.22-0.125-0.37 0.811-2.956-2.437-1.861-0.125-0.37 31.369-14.22zM33.255 7.068l-31.975 14.496 0.096 0.284 0.125 0.37 0.032 0.096 0.080 0.061 2.259 1.725-0.779 2.839 0.032 0.096 0.242 0.716 31.975-14.495-0.096-0.284-0.125-0.37-0.032-0.096-0.080-0.061-2.26-1.725 0.752-2.741 0.027-0.098-0.032-0.096-0.242-0.716z"></path>
<path fill="#000" style="fill: var(--color1, #000)" opacity="0.35" d="M8.258 21.929v-16.617h19.946v16.617l-9.973 4.893z"></path>
<path fill="#000" style="fill: var(--color1, #000)" opacity="0.35" d="M28.171 5.346v16.567l-9.94 4.872-9.94-4.872v-16.567h19.88zM29.163 4.354h-21.866v18.18l10.933 5.36 10.933-5.36v-18.181z"></path>
<path fill="#000" style="fill: var(--color1, #000)" opacity="0.35" d="M8.269 21.923v-16.6h19.924v16.6l-9.963 4.886z"></path>
<path fill="#fff" style="fill: var(--color2, #fff)" opacity="0.35" d="M28.171 5.346v16.568l-9.94 4.871-9.939-4.871v-16.568h19.88zM28.833 4.683h-21.204v17.642l10.602 5.197 10.602-5.197v-17.642z"></path>
<path fill="#fff" style="fill: var(--color2, #fff)" opacity="0.35" d="M7.126 22.458l22.21-9.881v-5.981l-22.21 9.881z"></path>
<path fill="#000" style="fill: var(--color1, #000)" opacity="0.35" d="M6.806 22.954v-6.525l22.85-10.328v6.525zM7.137 16.642v5.798l22.188-10.029v-5.798z"></path>
</symbol>
<symbol id="icon-logo_partner4" viewBox="0 0 47 32">
<path fill="#000" style="fill: var(--color1, #000)" opacity="0.35" d="M1.818 16.045l21.714-9.007 21.714 9.007-21.714 9.006z"></path>
<path fill="#000" style="fill: var(--color1, #000)" opacity="0.35" d="M23.532 7.678l20.173 8.367-20.173 8.367-20.173-8.367 20.173-8.367zM23.531 6.4l-23.254 9.645 23.254 9.645 23.253-9.645-23.253-9.645z"></path>
<path fill="#000" style="fill: var(--color1, #000)" opacity="0.35" d="M2.331 16.045l21.2-8.794 21.2 8.794-21.2 8.794z"></path>
<path fill="#fff" style="fill: var(--color2, #fff)" opacity="0.35" d="M23.532 7.678l20.173 8.367-20.173 8.367-20.173-8.367 20.173-8.367zM23.531 6.826l-22.227 9.22 22.227 9.22 22.227-9.22-22.228-9.22z"></path>
<path fill="#fff" style="fill: var(--color2, #fff)" opacity="0.35" d="M13.797 11.716v8.659l9.734 4.038 9.734-4.038v-8.659l-9.734-4.039z"></path>
<path fill="#000" style="fill: var(--color1, #000)" opacity="0.35" d="M23.531 8.317l18.632 7.728-18.632 7.729-18.632-7.728 18.632-7.729zM23.531 7.677l-20.173 8.369 20.173 8.367 20.173-8.367-20.173-8.367z"></path>
</symbol>
<symbol id="icon-logo_partner3" viewBox="0 0 32 32">
<path fill="#000" style="fill: var(--color1, #000)" opacity="0.35" d="M0.527 18.523v-0.714l2.026-2.932-2.026-2.932v-0.714h30.747v0.714l-2.026 2.932 2.026 2.932v0.714z"></path>
<path fill="#fff" style="fill: var(--color2, #fff)" opacity="0.35" d="M31.19 11.314v0.474l-2.083 3.089 2.083 3.089v0.474h-30.58v-0.474l2.083-3.089-2.083-3.089v-0.474h30.58zM31.592 10.911h-31.386v1l2 2.966-2 2.966v1h31.387v-1.001l-2-2.966 2-2.966v-1z"></path>
<path fill="#000" style="fill: var(--color1, #000)" opacity="0.35" d="M9.588 23.113c-0.439-0.325-0.826-0.671-1.179-1.049l-0.005-0.005c-1.411-1.509-2.277-3.543-2.277-5.779 0-0.005 0-0.009 0-0.014v0.001-10.218l9.771-2.052 9.772 2.052v10.218c0 0.004 0 0.008 0 0.013 0 2.236-0.866 4.27-2.282 5.784l0.004-0.005c-0.358 0.383-0.745 0.729-1.161 1.037l-0.023 0.016-6.311 4.64z"></path>
<path fill="#000" style="fill: var(--color1, #000)" opacity="0.35" d="M15.899 4.252l9.524 1.995v10.074c-0 2.158-0.837 4.12-2.203 5.581l0.004-0.005c-0.345 0.369-0.718 0.701-1.119 0.998l-0.022 0.016-6.185 4.535-6.184-4.535c-0.424-0.313-0.797-0.645-1.137-1.009l-0.004-0.005c-1.362-1.456-2.198-3.419-2.198-5.576v0-10.074l9.524-1.995zM15.899 3.018l-10.731 2.248v11.055c0 0.004 0 0.008 0 0.012 0 2.473 0.96 4.721 2.527 6.393l-0.005-0.005c0.396 0.423 0.825 0.805 1.286 1.146l0.026 0.018 6.897 5.060 6.899-5.059c0.487-0.359 0.916-0.741 1.307-1.159l0.005-0.005c1.563-1.667 2.523-3.915 2.523-6.388 0-0.004 0-0.008 0-0.013v0.001-11.055l-10.732-2.248z"></path>
<path fill="#000" style="fill: var(--color1, #000)" opacity="0.35" d="M9.631 23.046c-0.434-0.321-0.816-0.662-1.164-1.035l-0.005-0.005c-1.395-1.49-2.251-3.5-2.251-5.709 0-0.004 0-0.008 0-0.012v0.001-10.169l9.689-2.033 9.689 2.033v10.169c0 0.003 0 0.007 0 0.011 0 2.209-0.857 4.218-2.256 5.714l0.004-0.005c-0.353 0.378-0.735 0.72-1.147 1.024l-0.023 0.016-6.269 4.605z"></path>
<path fill="#fff" style="fill: var(--color2, #fff)" opacity="0.35" d="M15.9 4.252l9.524 1.995v10.074c0 2.158-0.836 4.12-2.202 5.581l0.004-0.005c-0.345 0.369-0.718 0.701-1.119 0.998l-0.022 0.016-6.185 4.535-6.184-4.535c-0.424-0.313-0.797-0.645-1.137-1.009l-0.004-0.005c-1.362-1.456-2.198-3.419-2.198-5.576v0-10.074l9.524-1.995zM15.9 3.429l-10.329 2.163v10.728c0 0.003 0 0.008 0 0.012 0 2.367 0.919 4.519 2.419 6.119l-0.005-0.005c0.379 0.405 0.789 0.77 1.23 1.097l0.024 0.017 6.66 4.884 6.66-4.884c0.465-0.344 0.875-0.709 1.249-1.109l0.005-0.005c1.496-1.595 2.414-3.747 2.414-6.114 0-0.004 0-0.008 0-0.012v0.001-10.728l-10.329-2.164z"></path>
<path fill="#000" style="fill: var(--color1, #000)" opacity="0.35" d="M4.414 9.222h22.971v7.292h-22.971v-7.292z"></path>
<path fill="#fff" style="fill: var(--color2, #fff)" opacity="0.35" d="M27.302 9.305v7.127h-22.806v-7.127h22.806zM27.705 8.902h-23.611v7.932h23.611v-7.932z"></path>
</symbol>
<symbol id="icon-logo_partner2" viewBox="0 0 29 32">
<path fill="#000" style="fill: var(--color1, #000)" opacity="0.35" d="M14.576 29.148c-4.54-0.006-8.537-2.321-10.882-5.833l-0.030-0.048-0.22-0.331 0.22-0.331c1.273-1.899 2.032-4.236 2.032-6.75s-0.759-4.851-2.060-6.794l0.028 0.044-0.22-0.331 0.22-0.331c2.371-3.564 6.37-5.881 10.911-5.881s8.54 2.317 10.881 5.833l0.030 0.048 0.22 0.331-0.22 0.331c-1.273 1.899-2.032 4.236-2.032 6.75s0.759 4.851 2.060 6.794l-0.028-0.044 0.22 0.331-0.22 0.331c-2.375 3.559-6.371 5.874-10.909 5.881h-0.001z"></path>
<path fill="#000" style="fill: var(--color1, #000)" opacity="0.35" d="M14.576 2.82c0.002 0 0.005 0 0.007 0 4.487 0 8.444 2.269 10.786 5.722l0.029 0.046c-1.386 2.040-2.213 4.557-2.213 7.268s0.827 5.228 2.242 7.313l-0.029-0.046c-2.374 3.499-6.334 5.768-10.823 5.768s-8.448-2.269-10.794-5.722l-0.029-0.046c1.386-2.040 2.213-4.557 2.213-7.268s-0.827-5.228-2.242-7.313l0.029 0.046c2.371-3.499 6.328-5.768 10.816-5.768 0.003 0 0.005 0 0.008 0h-0zM14.576 1.604c-0.002 0-0.004 0-0.007 0-4.905 0-9.231 2.48-11.793 6.254l-0.032 0.050-0.457 0.679 0.457 0.679c1.257 1.85 2.006 4.132 2.006 6.589s-0.75 4.74-2.033 6.631l0.026-0.041-0.457 0.679 0.457 0.679c2.596 3.825 6.924 6.305 11.832 6.305s9.236-2.48 11.8-6.255l0.032-0.050 0.457-0.679-0.457-0.679c-1.256-1.85-2.006-4.132-2.006-6.589s0.75-4.74 2.033-6.631l-0.026 0.041 0.457-0.679-0.457-0.679c-2.593-3.824-6.92-6.304-11.825-6.304-0.002 0-0.005 0-0.007 0h0z"></path>
<path fill="#000" style="fill: var(--color1, #000)" opacity="0.35" d="M14.576 28.828c-4.415-0.009-8.3-2.269-10.571-5.692l-0.029-0.047-0.145-0.218 0.145-0.218c1.276-1.913 2.037-4.266 2.037-6.796s-0.76-4.882-2.065-6.841l0.028 0.045-0.145-0.219 0.145-0.218c2.294-3.477 6.183-5.739 10.601-5.739s8.306 2.263 10.571 5.692l0.029 0.047 0.145 0.218-0.145 0.219c-1.276 1.913-2.037 4.266-2.037 6.796s0.76 4.882 2.065 6.841l-0.028-0.045 0.145 0.218-0.145 0.218c-2.3 3.47-6.186 5.73-10.599 5.739h-0.001z"></path>
<path fill="#fff" style="fill: var(--color2, #fff)" opacity="0.35" d="M14.576 3.041c4.39 0.002 8.258 2.234 10.534 5.625l0.029 0.046c-1.353 2.008-2.16 4.482-2.16 7.145s0.807 5.136 2.189 7.191l-0.029-0.046c-2.303 3.438-6.173 5.67-10.563 5.67s-8.26-2.233-10.534-5.625l-0.029-0.046c1.353-2.008 2.16-4.482 2.16-7.145s-0.807-5.136-2.189-7.191l0.029 0.046c2.305-3.436 6.173-5.668 10.563-5.67h0zM14.576 2.244c-4.662 0.004-8.77 2.374-11.187 5.974l-0.031 0.048-0.297 0.445 0.297 0.445c1.269 1.883 2.025 4.203 2.025 6.7s-0.756 4.816-2.052 6.743l0.027-0.043-0.297 0.445 0.297 0.445c2.447 3.651 6.556 6.022 11.22 6.022s8.773-2.371 11.189-5.974l0.031-0.049 0.297-0.445-0.297-0.445c-1.269-1.883-2.025-4.203-2.025-6.7s0.756-4.816 2.052-6.743l-0.027 0.043 0.297-0.445-0.297-0.445c-2.449-3.649-6.557-6.019-11.219-6.022h-0.001z"></path>
</symbol>
<symbol id="icon-logo_partner1" viewBox="0 0 35 32">
<path fill="#000" style="fill: var(--color1, #000)" opacity="0.35" d="M17.556 2.24l0.364 8.458 1.538-8.325-0.817 8.426 2.681-8.030-1.981 8.231 3.773-7.579-3.108 7.875 4.791-6.98-4.173 7.366 5.716-6.245-5.158 6.713 6.528-5.389-6.042 5.93 7.216-4.427-6.808 5.031 7.762-3.38-7.442 4.035 8.156-2.268-7.932 2.96 8.393-1.11-8.266 1.827 8.466 0.069-8.44 0.659 8.373 1.246-8.45-0.522 8.119 2.4-8.295-1.693 7.706 3.506-7.979-2.831 7.143 4.544-7.507-3.914 6.441 5.493-6.89-4.92 5.613 6.336-6.137-5.831 4.677 7.057-5.266-6.627 3.648 7.639-4.292-7.296 2.551 8.072-3.235-7.823 1.402 8.349-2.115-8.197 0.227 8.463-0.953-8.412-0.953 8.412 0.227-8.463-2.115 8.197 1.402-8.349-3.234 7.821 2.551-8.072-4.292 7.296 3.648-7.639-5.266 6.628 4.677-7.057-6.137 5.831 5.613-6.336-6.888 4.921 6.44-5.493-7.507 3.914 7.143-4.544-7.979 2.831 7.706-3.506-8.295 1.693 8.119-2.4-8.45 0.522 8.373-1.246-8.44-0.659 8.466-0.069-8.266-1.827 8.393 1.11-7.932-2.96 8.156 2.268-7.442-4.035 7.762 3.38-6.808-5.031 7.217 4.427-6.043-5.931 6.528 5.389-5.157-6.712 5.716 6.245-4.173-7.366 4.791 6.98-3.108-7.875 3.773 7.579-1.981-8.231 2.681 8.030-0.817-8.426 1.538 8.325z"></path>
<path fill="#000" style="fill: var(--color1, #000)" opacity="0.35" d="M13.052 25.599l-12.135-5.516v-8.303l12.135-5.516h9.009l12.135 5.516v8.303l-12.135 5.516z"></path>
<path fill="#000" style="fill: var(--color1, #000)" opacity="0.35" d="M21.932 6.861l11.668 5.303v7.534l-11.668 5.303h-8.751l-11.668-5.303v-7.534l11.668-5.303h8.751zM22.189 5.668h-9.267l-12.603 5.728v9.071l12.603 5.728h9.268l12.602-5.728v-9.071l-12.602-5.728z"></path>
<path fill="#000" style="fill: var(--color1, #000)" opacity="0.35" d="M13.094 25.4l-11.979-5.445v-8.046l11.979-5.445h8.923l11.979 5.445v8.046l-11.979 5.445z"></path>
<path fill="#fff" style="fill: var(--color2, #fff)" opacity="0.35" d="M21.932 6.862l11.668 5.303v7.534l-11.668 5.303h-8.751l-11.668-5.303v-7.535l11.668-5.302h8.751zM22.104 6.067h-9.096l-12.291 5.586v8.559l12.291 5.587h9.094l12.291-5.587v-8.559l-12.291-5.587z"></path>
</symbol>
</defs>
</svg>
